<?xml version="1.0" encoding="UTF-8"?>
<svg width="362px" height="362px" viewBox="0 0 362 362" version="1.1" xmlns="http://www.w3.org/2000/svg" xmlns:xlink="http://www.w3.org/1999/xlink">
    <!-- Generator: Sketch 46.2 (44496) - http://www.bohemiancoding.com/sketch -->
    <title>FoundPetIcon</title>
    <desc>Created with Sketch.</desc>
    <defs>
        <polygon id="path-1" points="1.01643954e-20 251.102436 372.999667 251.102436 372.999667 0.0562835021 1.01643954e-20 0.0562835021 1.01643954e-20 191.143209 163.464629 191.143209 163.464629 93.5337962 -1.11078023e-05 93.5337962 -1.11078023e-05 191.143209"></polygon>
        <polygon id="path-3" points="131.878197 50.9515366 0.0895487399 50.9515366 0.0895487399 0.0489862253 131.878197 0.0489862253 131.878197 50.9515366"></polygon>
    </defs>
    <g id="Icons" stroke="none" stroke-width="1" fill="none" fill-rule="evenodd">
        <g id="FoundPetIcon">
            <g id="Page-1" transform="translate(-14.000000, 54.000000)">
                <path d="M311.723207,5.85502934 C337.201384,-14.7182532 380.082416,35.7808325 372.001957,51.3690763 C367.513099,60.0275315 333.107672,44.6418168 301.168923,43.4656246 L289,14.650819 C295.48882,15.2739768 302.284243,13.4772031 311.723207,5.85502934" id="Fill-1" fill="#434544"></path>
                <path d="M248.143259,7.20188522 C268.793681,5.63279068 278.897268,13.6922104 289.880676,14.7500723 L302,43.563814 C276.554602,42.623007 252.683474,50.7727101 246.906262,87.625485 C233.908675,170.543528 167.06669,137.499907 167.06669,137.499907 C140.452684,80.7675293 162.733642,47.7262607 162.733642,47.7262607 C186.251486,5.9546074 215.34082,9.69509668 248.143259,7.20188522 Z" id="Fill-3" fill-opacity="0.69" fill="#00AAE7"></path>
                <path d="M191.146499,8.48015692 C191.146499,8.48015692 213.327097,27.9211752 183.136479,39.2089051 C152.947079,50.4978744 103.041924,61.7869564 123.988661,31.6836767 C144.936948,1.58163656 151.714214,-9.0793853 191.146499,8.48015692" id="Fill-5" fill="#454545"></path>
                <path d="M280,110.998889 C280,120.388269 287.610032,128 297.000056,128 C306.390079,128 314,120.388269 314,110.998889 C314,101.611842 306.390079,94 297.000056,94 C287.610032,94 280,101.611842 280,110.998889" id="Fill-7" fill="#454545"></path>
                <path d="M181,110.998889 C181,120.388269 188.61098,128 198.000778,128 C207.389131,128 215,120.388269 215,110.998889 C215,101.611842 207.389131,94 198.000778,94 C188.61098,94 181,101.611842 181,110.998889" id="Fill-9" fill="#454545"></path>
                <path d="M228,149.693385 C228,162.425814 250.999501,179 250.999501,179 C250.999501,179 274,162.425814 274,149.693385 C274,136.961179 250.999501,139.141981 250.999501,139.141981 C250.999501,139.141981 228,136.961179 228,149.693385" id="Fill-11" fill="#454545"></path>
                <path d="M288.970888,205.83224 C282.780499,206.008367 276.800676,204.969858 270.917483,202.652377 C267.901666,201.468997 264.971607,199.938383 262.091804,198.09989 C260.512783,197.090013 258.949959,195.963555 257.397231,194.762151 C256.260198,193.881746 255.127048,192.985713 254,192.004126 C254.220218,192.770688 254.489804,193.521736 254.774478,194.264913 C256.706069,199.309164 260.086992,203.835871 264.335694,207.414529 C265.29267,208.219761 266.277381,208.993966 267.31612,209.698358 C273.634868,213.994185 281.526424,216.218697 289.12199,215.983025 C296.974495,215.809522 304.555084,213.098266 310.679907,208.442429 C316.764569,203.804502 321.363179,197.234998 323,190 C317.786667,195.070259 312.422677,198.94402 306.6806,201.595617 C300.989001,204.247328 294.904449,205.66387 288.970888,205.83224 Z" id="Fill-13" fill="#454545"></path>
                <path d="M250.718507,194.98039 C249.207555,196.288189 247.683846,197.520817 246.135288,198.631733 C243.392722,200.594401 240.584705,202.254331 237.678619,203.595666 C231.987037,206.247196 225.906622,207.666212 219.969759,207.83184 C213.783512,208.007962 207.802275,206.96948 201.91966,204.652057 C196.039263,202.342278 190.475035,198.769072 185,194.004303 C187.04633,201.120145 191.987318,207.412409 198.317006,211.697975 C204.6356,215.994035 212.526605,218.220772 220.122075,217.98271 C227.973031,217.808984 235.556853,215.098024 241.677537,210.442077 C242.58433,209.75082 243.444308,209.004924 244.278992,208.233362 C248.435772,204.393349 251.654143,199.602573 253.338709,194.361567 C253.589425,193.582249 253.819729,192.797569 254,192 C252.9146,193.056734 251.817774,194.027687 250.718507,194.98039" id="Fill-15" fill="#454545"></path>
                <path d="M111.052485,214 C111.052485,214 125.049105,201.076415 123.937081,192.669919 C122.826083,184.268365 107.576742,187.689083 107.576742,187.689083 C107.576742,187.689083 91.9446122,188.234686 93.0566359,196.636241 C94.1672924,205.042848 111.052485,214 111.052485,214 Z" id="Fill-17" fill="#454545"></path>
                <path d="M63,171.501473 C63,177.851347 68.148181,183 74.4981295,183 C80.850572,183 86,177.851347 86,171.501473 C86,165.15126 80.850572,160 74.4981295,160 C68.148181,160 63,165.15126 63,171.501473" id="Fill-19" fill="#444444"></path>
                <path d="M133.499263,175 C139.850572,175 145,169.85337 145,163.502437 C145,157.151844 139.850572,152 133.499263,152 C127.148181,152 122,157.151844 122,163.502437 C122,169.85337 127.148181,175 133.499263,175 Z" id="Fill-21" fill="#444444"></path>
                <path d="M132.47341,196.480778 C143.865029,186.099091 160.07288,176.551089 175.922322,179.564249 C177.810721,179.922678 177.007142,182.806356 175.132459,182.450054 C164.817966,180.492469 154.147851,184.550563 145.058688,190.464875 C155.050456,187.324584 165.94717,186.772827 175.922322,190.108685 C177.736118,190.716447 176.960306,193.607629 175.132459,192.997179 C162.077702,188.628931 147.362148,191.252971 135.554243,197.736849 C135.228952,198.021689 134.894853,198.309105 134.579599,198.596296 C133.161906,199.887987 131.048245,197.780085 132.47341,196.480778" id="Fill-23" fill="#434544"></path>
                <g id="Group-27">
                    <mask id="mask-2" fill="white">
                        <use xlink:href="#path-1"></use>
                    </mask>
                    <g id="Clip-26"></g>
                    <path d="M157.927167,93.5337962 L127.436583,116.114514 C120.021903,113.247957 98.467879,107.274549 70.5038757,120.210727 L21.5818933,97.8197013 L21.5818933,154.882479 C16.0118859,158.945591 1.77279413,170.877359 0.13883642,187.734992 C0.0568608398,188.580136 0.0165395176,189.422717 -1.11078023e-05,190.262623 C3.16193588,190.361258 6.29633553,190.621834 9.36508806,191.143209 C9.3537581,190.320801 9.33976227,189.50118 9.41807228,188.681447 C10.9360645,172.719111 28.5465964,161.417384 28.7166568,161.308829 L30.9091149,159.934954 L30.9091149,112.375172 L70.6109549,130.543487 L72.5903653,129.576971 C103.29533,114.523196 125.022302,125.179502 125.913592,125.630104 L128.489269,126.963299 L163.464629,101.06308 L157.927167,93.5337962 Z" id="Fill-25" fill="#F5BD4C" mask="url(#mask-2)"></path>
                </g>
                <g id="Group-30" transform="translate(45.000000, 200.000000)">
                    <mask id="mask-4" fill="white">
                        <use xlink:href="#path-3"></use>
                    </mask>
                    <g id="Clip-29"></g>
                    <path d="M123.70076,4.06443804 C123.060503,18.5609428 113.857498,28.0684995 102.910726,31.0757724 C100.049431,31.8622377 97.0744357,32.2014617 94.0954354,32.0677423 C84.9759809,31.6616019 75.8752167,26.8424923 70.2851272,16.7693735 C69.0716993,14.5821939 66.8820334,14.3534781 65.158403,15.196443 C64.1872825,15.4841493 63.3765877,16.2090199 62.986315,17.4325361 C62.8258893,17.8052749 62.7237598,18.2034895 62.6896053,18.625255 C61.7449629,23.5035815 59.8268636,27.6931565 57.2672841,31.1707688 C51.9233957,38.4346463 43.7318958,42.5391888 35.4027769,42.9376299 C24.5471205,43.4568826 13.4825324,37.7070583 8.28138054,24.5368787 C6.34180959,19.6276415 -1.56677593,21.7685119 0.401720588,26.7471563 C5.92138751,40.7246348 17.2040299,48.5435444 29.1824436,50.4764192 C44.1813547,52.895032 60.2564084,46.0581284 67.4869117,30.4641276 C67.8137707,29.7571467 68.1382933,29.050279 68.4274378,28.310123 C69.2128784,29.196793 70.0324734,30.0142821 70.8698687,30.79803 C81.6208369,40.8762439 96.3924597,42.5958017 108.721985,37.6557671 C121.176447,32.6691968 131.130627,20.9049399 131.873124,4.06443804 C132.110536,-1.29973973 123.936948,-1.27924589 123.70076,4.06443804" id="Fill-28" fill="#434544" mask="url(#mask-4)"></path>
                </g>
                <path d="M84.1396642,203.144431 C65.746195,189.709288 40.3629081,178.223013 17.4110165,185.011688 C14.6785798,185.818928 16.2972184,189.909062 19.0180126,189.106995 C33.9506688,184.686987 50.3267719,189.0021 64.6451482,196.26561 C49.4130028,193.187443 33.2369288,194.024401 19.009253,200.405714 C16.4217376,201.567594 18.0086643,205.670496 20.6140315,204.500911 C39.2301494,196.15301 61.360414,197.762207 79.7840428,205.443095 C80.3038522,205.807861 80.8412916,206.175048 81.3495694,206.547299 C83.6428071,208.223967 86.4428811,204.825942 84.1396642,203.144431" id="Fill-31" fill="#434544"></path>
            </g>
            <path d="M140,133.711185 L109.364027,157.331766 C103.059051,154.750707 84.7308714,149.372228 60.9520501,161.020013 L19.3518877,140.859046 L19.3518877,192.238593 C14.6155054,195.897034 2.50748155,206.640445 1.11806716,221.819123 C1.04836031,222.580094 1.01407361,223.338657 1,224.095012 C3.68871991,224.183824 6.3540153,224.418447 8.96348854,224.887895 C8.95385426,224.147396 8.94195309,223.409405 9.00854297,222.671315 C10.2993477,208.298766 25.2742311,198.122646 25.4188398,198.024903 L27.2831675,196.787861 L27.2831675,153.964848 L61.0431035,170.323669 L62.726269,169.453415 C88.8358306,155.898937 107.311075,165.493916 108.068972,165.899641 L110.259165,167.100054 L122.736169,157.31647 L140,143.779396 L140,133.711185 Z" id="Fill-1" fill-opacity="0.68" fill="#00AAE7"></path>
        </g>
    </g>
</svg>