<svg xmlns="http://www.w3.org/2000/svg" version="1.1" xmlns:xlink="http://www.w3.org/1999/xlink" xmlns:svgjs="http://svgjs.com/svgjs" height="154.62629470825198" width="256.3699951171875"><defs id="SvgjsDefs3432"></defs><g id="SvgjsG3433" rel="mainfill" name="main_text" xmlns:name="main_text" transform="translate(0,-85.37370529174802)" fill="#000000"><path d="M0.07 177.91L23.55 177.91L23.62 181.33L21.27 181.64L20.27 181.95L19.75 182.74L19.72 183.68L19.82 185.23L20.34 187.37L35.57 223.08L35.88 222.66L43.44 207.75L33.70 186.99L31.56 183.81L30.22 182.50L28.42 181.64L27.28 181.47L27.18 177.91L48.31 177.91L48.38 181.40L46.07 181.78L45.20 182.19L44.82 183.12L44.82 183.99L45.13 185.44L50.11 196.42L50.56 196.11L55.63 185.23L55.87 184.19L55.87 183.26L55.32 182.26L54.46 181.81L53.35 181.57L51.90 181.47L51.90 177.91L69.62 178.05L69.62 181.47L67.96 181.71L66.89 182.02L65.09 182.81L64.34 183.37L63.64 184.06L62.47 185.54L60.99 187.99L53.39 202.95L53.66 203.88L62.40 223.04L62.78 222.42L77.01 186.16L77.46 183.99L77.22 182.95L76.66 182.19L75.73 181.78L74.66 181.50L72.86 181.47L72.93 177.98L89.34 178.22L91.82 177.98Q92.03 178.43 92.07 178.98L92.07 181.33L91.89 181.47L89.51 181.71L88.47 182.02L87.58 182.43L85.61 184.37L83.50 187.61L61.23 239.69Q60.78 239.90 60.19 239.93L58.95 240Q58.40 239.90 58.26 239.31L46.55 214.27L33.19 239.76L30.70 240L30.22 239.14L7.91 187.16L6.39 184.75L4.49 182.71L2.66 181.81L1.62 181.57L0.38 181.47L0.07 180.46L0 178.08L0.07 177.91ZM94.00 177.91L119.76 177.91L119.83 181.12Q119.76 181.43 119.38 181.50L117.14 181.64L115.24 182.12L114.24 182.78L113.86 183.16L113.34 184.26L113.03 185.54L112.72 188.44L112.72 229.29L113.20 232.82L113.92 234.51L114.65 235.34L115.17 235.65L117.00 236.27L119.21 236.48L119.83 236.65L119.83 239.86L119.21 239.93L94.17 240L94.00 239.38L94.00 236.93Q94.03 236.58 94.38 236.48L95.90 236.41L97.90 235.96L99.35 235.10L100.04 234.13L100.73 232.44L101.04 230.37L101.04 189.31L100.87 187.13L100.42 185.16L99.73 183.47L98.90 182.64L97.90 182.05L96.00 181.57L94.45 181.50Q94.10 181.47 94.00 181.12L94.00 177.91ZM128.67 177.91L145.80 177.91L153.71 195.25L154.12 196.00L167.07 222.60L167.31 222.91L188.17 177.91L201.22 178.22L205.33 177.91L205.40 181.50L202.54 181.64L200.53 182.02L198.95 182.81L198.46 183.50L198.08 184.33L197.63 186.30L197.39 189.65L198.57 229.09L199.01 232.20L199.64 234.03L200.09 234.72L200.71 235.27L201.54 235.65L203.37 236.20L205.96 236.58L205.96 240L179.85 240L179.85 236.55L183.27 235.96L184.96 235.27L185.65 234.72L186.10 234.03L186.41 233.13L186.62 232.13L186.86 222.98L186.79 195.49L165.48 240L163.10 240L162.58 239.31L141.52 195.69L141.34 196.25L140.38 230.99L141.14 233.75L141.59 234.51L142.14 235.13L143.73 235.96L145.70 236.41L146.83 236.48Q147.35 236.48 147.46 237.03L147.46 240L131.67 239.62L126.77 240L126.77 236.55L127.60 236.55L129.60 236.17L130.50 235.86L131.26 235.41L131.88 234.82L133.09 232.44L133.33 231.50L135.85 190.96L135.78 186.23L135.23 184.40L134.16 183.09L132.64 182.19L130.74 181.71L128.60 181.43L128.60 178.05L128.67 177.91ZM242.11 177.81L246.88 178.95L250.61 181.02L252.20 182.36L253.58 183.95L255.03 186.34L255.79 188.51L256.37 191.86L255.93 199.08L254.41 203.39L252.89 205.74L251.06 207.82L248.33 209.99L243.22 212.65L240.21 213.58L228.44 214.48L228.44 230.68L228.95 233.16L229.51 234.47L229.96 235.06L231.10 235.82L232.62 236.27L235.59 236.51L235.59 239.17L235.48 240L209.44 240L209.44 236.65L213.55 235.96L214.83 235.20L215.66 234.09L215.90 233.40L216.66 228.29L216.52 187.54L215.90 184.33L215.28 182.99L214.76 182.50L213.48 181.78L211.17 181.29L209.44 181.22L209.44 177.74L242.11 177.81M228.37 182.43L228.37 210.78L233.06 210.78L236.48 210.03L238.45 209.23L240.14 208.13L241.56 206.74L242.11 205.92L243.77 201.98L244.39 198.46L244.53 194.73L244.01 190.72L243.70 189.65L242.84 187.75L241.70 186.09L240.97 185.47L239.35 184.33L237.38 183.43L232.82 182.50L229.02 182.36L228.37 182.43Z" fill="#000000" style="fill: rgb(0, 0, 0);"></path></g><g id="SvgjsG3434" rel="mainfill" name="symbol" xmlns:name="symbol_mainfill" transform="translate(73.18533167839051,-13.136878108978266) scale(1.1)" fill="#0D0D0D"><g fill="#0D0D0D"><path d="M39.549,42.217c-2.092-0.682-11.059-3.607-15.508-5.098c-2.256,5.819-14.174,37.303-10.067,42.717   c4.528,5.971,20.792-1.028,25.527,0c4.736,1.031,4.152-2.26,4.152-2.26L39.549,42.217z" fill="#0D0D0D" style="fill: rgb(13, 13, 13);"></path><path d="M51.475,24.534c-1.242-1.697-8.308-1.338-8.308-1.338s-1.793-3.847-2.948-4.559c-1.35-0.829-5.121-0.682-5.121-0.682   s0.351-5.571-1.349-5.986c-3.244-0.793-7.559,16.508-8.916,22.333c3.652,1.481,10.491,4.122,14.351,4.765l-0.038-0.328   c0,0,0.134-2.813,2.011-3.484c1.262-0.451,7.505-1.732,9.249-3.484C51.693,30.475,52.558,26.01,51.475,24.534z" fill="#0D0D0D" style="fill: rgb(13, 13, 13);"></path></g><g fill="#0D0D0D"><path d="M57.232,52.332c2.788-0.841,7.129-2.381,10.711-4.673c-0.139-1.864,0.462-3.943,0.717-5.211   c0.401-2.01-0.134-3.158-1.207-6.032c-0.193-0.517-1.067-6.255-2.813-6.433c-1.722-0.175-4.021,5.628-4.021,5.628   s-4.96,0-5.553,2.212c-0.713,2.657-3.454,4.102-3.561,4.49c-0.412,1.496,0.313,5.559,2.697,6.179   C55.656,48.871,56.709,50.762,57.232,52.332z" fill="#0D0D0D" style="fill: rgb(13, 13, 13);"></path><path d="M69.159,50.501c-0.23-0.212-0.415-0.45-0.573-0.703c-1.927,1.046-7.719,4.114-10.932,4.993   c1.313,6.186,0.563,21.806,0.602,22.475c0.054,0.992-0.593,1.609-0.113,2.4c0.732,1.21,2.17,1.324,3.867,1.017   c1.698-0.312,14.337,3.192,22.256-0.12C93.981,74.712,77.774,53.88,69.159,50.501z" fill="#0D0D0D" style="fill: rgb(13, 13, 13);"></path></g><path d="M13.561,77.88C6.812,72.69,6.75,60.746,5.025,64.354C3.412,67.728,4.989,75.87,8.004,79.445  c2.77,3.284,8.482,3.127,8.709,1.068" fill="#0D0D0D" style="fill: rgb(13, 13, 13);"></path><path d="M87.215,73.905c2.652,1.669,7.471-5.442,3.475-7.84c-2.516-1.509-2.794-1.968-3.504-3.139  c-1.708-2.808,0.529-10.66,4.837-11.671c3.202-0.75,3.41,2.191,1.651,3.151c-4.177,2.483-4.527,6.651-1.684,8.683  c1.607,1.149,2.74,1.968,3.44,4.529c0.989,3.612-1.979,9.358-7.682,11.165c0,0-3.172,0.713-3.757-0.586" fill="#0D0D0D" style="fill: rgb(13, 13, 13);"></path></g></svg>
