<svg xmlns="http://www.w3.org/2000/svg" xmlns:xlink="http://www.w3.org/1999/xlink" xmlns:svgjs="http://svgjs.com/svgjs" height="160.5" width="254.59"><path d="M37.08 98.47l-10.52 33.15h-.27l-2.76-10.6-8.02-23.53H0v2.4l21.92 60.61h8.83l9.98-30.03H41l9.98 30.03h9.18l21.66-60.61v-2.4H66.31l-7.93 23.53-2.76 10.6h-.27L44.74 98.47h-7.66zm-10.52 51.16l13.9-41.18h.81l13.99 41.18h.09l16.49-46.17h1.25l-17.47 48.13h-.63l-14.08-41.8-14.08 41.8h-.63L8.82 103.46h1.07l16.58 46.17zm74.87 2.85v-47.51h-8.65v-.89h18.1v.89h-8.56v47.51h9.27v.89H91.98v-.89zm8.29-6.59v-34.5h7.31v-13.9h-30.4v13.9h7.31v34.5h-7.93v13.99h31.64v-13.99zm48.58-21.48l-24.43-27.1h-5.88v62.57h16.31v-27.81l13.19 13.91h1.79l13.28-13.91v27.81h16.31V97.31h-5.71zm22.01 29.32v-40.2l-22.01 23-21.66-23v40.2h-.89v-41.36h1.15l21.4 22.82 21.66-22.82h1.24v41.36zm51.97-16.49h-19.17v16.67h-.98v-49.65h20.15c19.87 0 19.78 32.8 0 32.98zm-11.59 22.64v-15.95h11.5c29.86 0 29.86-46.35 0-46.44h-27.46v62.39h15.96zm-7.58-54.82v31.11h19.17c18.71 0 18.45-31.11 0-31.11zm18.99 24.51h-11.41v-17.82c3.65 0 7.66-.09 11.41 0 9.27.09 8.73 17.82 0 17.82z" xmlns:name="main_text" fill="#fff"/><g xmlns:name="symbol_mainfill" fill="#fff" fill-rule="evenodd" clip-rule="evenodd"><path d="M158.48 0c7.47 3.52 10.91 13.3 7.67 21.62a35.68 35.68 0 0 1-2.74 5.34c-1.26 2.12-3.1 3.92-.9 6.66 1.23 1.52-1 1.9-1.7 2.74-1.58 1.9-2.76 3.87-2.08 6.49.7 2.75 2.72 4.74 5.23 4.75 3.47.03 3.78 1.84 3.84 4.72-4.6-.9-8.41-3.2-11.75-6.1-5.33-4.63-10.78-6.35-17.01-1.99-1.33.93-2.5.19-3.56-.19-8.4-2.98-16.53-1.91-24.55 1.42-.23.1-.47.18-.7.26-10.16 3.67-11.9 1.32-13.6-7.7-.55-2.94-.82-4.9-4.83-4.32-3.54.51-5.38-2.8-4.51-6.83 1.03-4.82 1.03-4.82-3.88-5.44-6.25-.79-9.5-3.53-9.75-8.01-.13-2.29.58-3.6 2.99-3.76 3.03-.2 5.83-.52 7.85-3.48 1.04-1.54 3.44-1.23 5.33-1.18 5.33.16 11.66 2.08 13.48 9.1 2.1 8.14 9.26 10.09 16.28 12.03 10.39 2.89 20.97 1.1 31.46 1.51 2.5.1 4.16-1.17 5.63-3.13 5.1-6.83 6.43-14 2.45-21.83-.37-.74-1.07-1.44-.65-2.68z"/><path d="M108.28 81.23c2.8-1.67 2.44-3.52 1.43-5.46-.11-.22-.22-.45-.36-.65-2-2.96-2.94-8.04-6.43-8.25-5.2-.3-10.8.21-15.7 2.92-1.94 1.07-1.88 3.08-1.98 4.97-.04.79-.2 1.64-1.17 1.57-.88-.06-1.14-.86-1.1-1.7.19-3.48.58-6.97 4.55-8.23 5.22-1.67 5.35-6.25 5.8-10.33.28-2.58-1.73-4.4-4.57-4.46-2.54-.05-5.83.9-5.99-2.97-.11-2.75 2.04-4.88 4.42-6.18 1.36-.74 2.27-1.36 1.75-3.68 2.77 2.67 5.8 4.23 7.84 6.54 3.95 4.5 8.27 3.38 12.71 1.87 3.32-1.13 6.6-2.33 10.01-3.17 5.35-1.32 10.5-.55 15.55 1.11 2.09.7 3.7.76 5.6-.52 4.45-3 8.7-2.31 12.77 1.03 4.19 3.44 8.63 6.46 14 7.84 3.51.9 6.5.38 8.6-2.8a7.88 7.88 0 0 0-.48-9.45c-2.32-2.76-6.44-3.92-9.54-2.66-1.16.48-2.38 1-2.59 2.47-.2 1.46.92 1.96 2.01 2.28 1.26.37 1.6 1.18 1.2 2.27-.43 1.2-1.5 1.18-2.52.93-2.1-.5-3.73-1.6-4.2-3.83-.53-2.6.45-4.66 2.58-6.2 3.8-2.76 10.05-2.44 14.1.74a11.2 11.2 0 0 1 3.64 12.84c-1.85 4.88-6.3 7.75-11.54 7.2-6.51-.7-11.67-4.24-16.56-8.27-4.08-3.37-7.07-3.48-10.86-.75-1.23.89-1.52 1.69-.89 3.1 2.41 5.32 4 10.93 7.98 15.62a16.62 16.62 0 0 1 3.77 12.3c-.13 1.4-.34 2.85-2.3 2.8-1.7-.06-2.69-.38-1.67-2.46 1.7-3.5-.3-8.74-3.88-9.71a15.49 15.49 0 0 1-8.38-5.38c-1.99-2.49-2.74-1.01-3.36.98-.14.47-.35 1.03-.23 1.46 1.51 5.4-2.09 8.99-4.5 13-.96 1.57-2.3 1.82-3.9 1.38-.44-.13-1.1-.42-1.17-.74-.13-.57.2-1.1.76-1.55 4.16-3.38 4.61-5.49 2.31-10.14-3.13-6.33-3.13-6.33-10.03-4.6l-.73.16c-5.32 1.32-5.38 1.44-3.5 6.73.75 2.12 1.7 4.21 2.1 6.4.7 3.86-.45 4.7-5.35 3.63z"/><path d="M140.39 50.6c5.44-4.17 6.85-4.2 11.03-.76 5.49 4.53 11.3 8.15 18.73 8.78 2.8.23 4.22 3.07 4.72 5.64.8 4.04 1.13 8.18 1.57 12.29.14 1.27.68 2.85-1.43 3.26-2.22.44-4.46 1.19-6.42-.61-.68-.63-.36-1.41.15-2.02.8-.96 2.83-.96 2.33-2.92-.7-2.78-.93-5.74-2.8-8.09-.92-1.15-1.88-2.32-3.61-2.6-.48 3.91-.82 7.75-1.45 11.54-.48 2.88-5.52 4.53-7.68 2.5-1.52-1.42-.19-2.73 1.04-3.06 2.54-.66 2.3-2.23 1.85-4.05-.9-3.8-1.75-7.54-5.5-9.83a10.34 10.34 0 0 1-4.23-5.64c-1.22-3.67-3.54-5.24-8.3-4.43z"/><path d="M119.8 72.87l-.57 6.62c-.18 2.05-1.6 2.9-3.36 2.81-2.33-.12-1.03-2.05-1.15-3.14-.25-2.37.08-4.84-.48-7.1-.26-1.06.98-3.88-2.23-3.35-.34.06-.7-1.27-.08-1.91.33-.34.85-.51 1.3-.7 6.47-2.65 6.97-2.23 6.56 6.77z"/><path d="M106.28 80.35c-1.82-.01-3.3-.43-3.07-2.22.28-2.22 2.64-2.73 4.2-3.22 1.07-.34 1.9 1.83 1.8 3.12-.11 1.77-1.54 2.38-2.93 2.32z"/></g></svg>