<svg xmlns="http://www.w3.org/2000/svg" version="1.1" xmlns:xlink="http://www.w3.org/1999/xlink" xmlns:svgjs="http://svgjs.com/svgjs" height="172.4595977783203" width="329.2200012207031"><defs id="SvgjsDefs3090"></defs><g id="SvgjsG3091" rel="mainfill" name="main_text" xmlns:name="main_text" transform="translate(-2.25,-67.5404022216797)" fill="#141414"><path d="M38.10 240L55.64 182.00L56.31 182.00L74.18 240L86.32 240L109.70 166.94L101.05 166.94L80.70 232.47L80.03 232.47L59.57 166.94L52.04 166.94L32.60 232.47L31.92 232.47L11.46 166.94L2.25 166.94L25.96 240ZM136.12 166.94L136.12 240L144.55 240L144.55 166.94ZM176.02 166.94L176.02 240L184.22 240L184.22 198.52L184.11 176.16L185.01 176.16L209.63 212.80L212.66 212.80L237.73 176.16L238.74 176.16L238.51 198.52L238.51 240L246.83 240L246.83 166.94L235.25 166.94L211.42 202.01L187.71 166.94ZM278.30 166.94L278.30 240L286.73 240L286.73 212.35L303.03 212.35C319.44 212.35 331.47 204.14 331.47 189.42C331.47 175.03 319.10 166.94 303.03 166.94ZM286.73 174.13L301.34 174.13C315.28 174.13 323.04 179.08 323.04 189.42C323.04 200.55 315.28 205.04 301.34 205.04L286.73 205.04Z" fill="#141414" style="fill: rgb(20, 20, 20);"></path></g><g id="SvgjsG3092" rel="mainfill" name="symbol" xmlns:name="symbol_mainfill" transform="translate(104.61036510467531,-14.33113975524903) scale(1.2)" fill="#141414"><g fill="#141414"><path d="M39.549,42.217c-2.092-0.682-11.059-3.607-15.508-5.098c-2.256,5.819-14.174,37.303-10.067,42.717   c4.528,5.971,20.792-1.028,25.527,0c4.736,1.031,4.152-2.26,4.152-2.26L39.549,42.217z" fill="#141414" style="fill: rgb(20, 20, 20);"></path><path d="M51.475,24.534c-1.242-1.697-8.308-1.338-8.308-1.338s-1.793-3.847-2.948-4.559c-1.35-0.829-5.121-0.682-5.121-0.682   s0.351-5.571-1.349-5.986c-3.244-0.793-7.559,16.508-8.916,22.333c3.652,1.481,10.491,4.122,14.351,4.765l-0.038-0.328   c0,0,0.134-2.813,2.011-3.484c1.262-0.451,7.505-1.732,9.249-3.484C51.693,30.475,52.558,26.01,51.475,24.534z" fill="#141414" style="fill: rgb(20, 20, 20);"></path></g><g fill="#141414"><path d="M57.232,52.332c2.788-0.841,7.129-2.381,10.711-4.673c-0.139-1.864,0.462-3.943,0.717-5.211   c0.401-2.01-0.134-3.158-1.207-6.032c-0.193-0.517-1.067-6.255-2.813-6.433c-1.722-0.175-4.021,5.628-4.021,5.628   s-4.96,0-5.553,2.212c-0.713,2.657-3.454,4.102-3.561,4.49c-0.412,1.496,0.313,5.559,2.697,6.179   C55.656,48.871,56.709,50.762,57.232,52.332z" fill="#141414" style="fill: rgb(20, 20, 20);"></path><path d="M69.159,50.501c-0.23-0.212-0.415-0.45-0.573-0.703c-1.927,1.046-7.719,4.114-10.932,4.993   c1.313,6.186,0.563,21.806,0.602,22.475c0.054,0.992-0.593,1.609-0.113,2.4c0.732,1.21,2.17,1.324,3.867,1.017   c1.698-0.312,14.337,3.192,22.256-0.12C93.981,74.712,77.774,53.88,69.159,50.501z" fill="#141414" style="fill: rgb(20, 20, 20);"></path></g><path d="M13.561,77.88C6.812,72.69,6.75,60.746,5.025,64.354C3.412,67.728,4.989,75.87,8.004,79.445  c2.77,3.284,8.482,3.127,8.709,1.068" fill="#141414" style="fill: rgb(20, 20, 20);"></path><path d="M87.215,73.905c2.652,1.669,7.471-5.442,3.475-7.84c-2.516-1.509-2.794-1.968-3.504-3.139  c-1.708-2.808,0.529-10.66,4.837-11.671c3.202-0.75,3.41,2.191,1.651,3.151c-4.177,2.483-4.527,6.651-1.684,8.683  c1.607,1.149,2.74,1.968,3.44,4.529c0.989,3.612-1.979,9.358-7.682,11.165c0,0-3.172,0.713-3.757-0.586" fill="#141414" style="fill: rgb(20, 20, 20);"></path></g></svg>
