<svg xmlns="http://www.w3.org/2000/svg" version="1.1" xmlns:xlink="http://www.w3.org/1999/xlink" xmlns:svgjs="http://svgjs.com/svgjs" height="220.94042358398437" width="254.27000427246094"><defs id="SvgjsDefs3857"></defs><g id="SvgjsG3858" rel="mainfill" name="main_text" xmlns:name="main_text" transform="translate(-1.340000033378601,-19.549581909179693)" fill="#000000"><path d="M28.28 221.23L19.14 160.77L24.14 158.45L24.14 154.55L1.34 154.55L1.34 158.33L6.09 161.01L19.38 240.49L31.69 240.49L42.05 191.49L51.68 240.49L64.60 240.49L78.62 160.65L83.01 158.33L83.01 154.55L66.07 154.55L66.07 158.33L70.70 160.53C67.41 180.52 63.87 200.51 60.46 220.50L60.34 220.50L48.64 156.87L40.71 156.87L28.40 221.23ZM107.39 161.26L112.02 158.09L112.02 154.55L90.45 154.55L90.45 158.09L95.08 161.26C95.08 185.15 95.08 208.92 95.08 232.81L89.59 236.47L89.59 240C96.66 240 105.80 240 112.75 240L112.75 236.47L107.39 232.81C107.39 208.92 107.39 185.15 107.39 161.26ZM137.25 233.05C137.25 215.26 137.25 197.58 137.25 179.78L136.64 164.06L137.25 164.06C141.76 188.20 145.66 211.11 149.69 235.37C150.05 237.68 151.27 238.78 153.83 238.78L163.95 238.78L177.36 163.21L177.84 163.21L177.48 175.40C177.48 194.53 177.48 213.67 177.48 232.81L172.11 236.47L172.11 240C179.06 240 188.45 240 195.40 240L195.40 236.47L190.03 232.81C190.03 208.92 190.03 185.15 190.03 161.26L194.79 158.09L194.79 154.55C187.84 154.55 184.06 154.67 177.11 154.67C172.48 154.55 170.90 155.41 169.92 159.92L159.07 224.28L158.83 224.28C156.02 200.38 153.34 184.29 148.83 160.28C147.74 155.65 146.15 154.55 141.64 154.55C135.18 154.55 130.18 154.55 123.72 154.55L123.72 158.09L128.60 161.26C128.60 185.15 128.60 209.16 128.60 233.05L123.48 236.22L123.48 240C129.45 240 136.40 240 142.37 240L142.37 236.22L137.25 233.05ZM231.72 162.11C240.01 162.11 242.93 166.62 242.93 174.42L242.93 189.66C242.93 197.46 239.77 201.85 231.60 201.85L223.80 201.85C223.80 188.68 223.80 175.40 223.80 162.11ZM255.61 174.42C255.61 159.55 244.76 154.55 231.60 154.55L206.85 154.55L206.85 158.09L211.49 161.26C211.49 184.90 211.49 209.16 211.49 232.81L206.00 236.47L206.00 240C213.07 240 222.21 240 229.16 240L229.16 236.47L223.80 232.81C223.80 225.01 223.80 216.72 223.80 208.92L231.35 208.92C244.76 208.92 255.61 204.89 255.61 189.66Z" fill="#000000" style="fill: rgb(0, 0, 0);"></path></g><g id="SvgjsG3859" rel="mainfill" name="symbol" xmlns:name="symbol_mainfill" transform="translate(67.13477897644044,0.0004192829132080078) scale(1.2)" fill="#000000"><g fill="#000000"><path d="M42.841,87.871c0,0,2.003,2.492-0.5,5.648s-4.792,1.746-5.412,5.197c-0.146,0.815,0.695,1.126,1.225,1.232   C25.932,99.977,15.709,100,14.165,100c-2.532,0-4.21-0.88-4.129-3.273c1.778-8.488,10.407-8.488,10.407-8.488l10.66-24.087   l-8.497-25.119c0,0-9.307-0.594-9.793-0.587C-1.626,38.649,0.061,22.128,0.061,22.128l13.954-2.109l4.412-5.098l10.088-2.849   l4.78-10.124c0,0,1.577-4.229,3.619-0.226c2.383,4.712,6.611,13.375,9.769,21.476c4.641,11.91,17.005,16.015,27.092,27.793   c2.434,2.842,5.076,5.512,7.628,8.127c-1.433,3.854-0.485,10.104,2.823,18.372c1.152,2.881,2.191,6.764,0.591,8.906   c-0.807,1.08-2.226,1.627-3.573,1.887c-1.631-17.092-16.046-18.168-19.955-21.99c-4.145-4.053-4.496-7.107-4.496-7.107   s-1.219-6.804-3.641-10.82c-1.419-2.354-9.697-9.063-9.697-9.063l-0.129,6.874c0,0-4.365,0.896-5.718,2.877   c-1.043,1.528-1.508,2.689-3.079,3.439c-0.589,0.281-2.506,0.653-2.506,0.653s-0.384,2.289,0.558,3.931   c1.508,2.627,2.918,2.889,5.755,4.218c0,0,2.67,1.661,2.837,5.813C41.406,72.938,37,78.237,42.841,87.871z M93.283,43.719   c-2.717-3.422-5.331-2.779-4.761-0.456c1.228,5.002,1.306,8.932,0.769,12.002c0.597,0.164,1.205,0.393,1.821,0.691   c1.353,0.657,1.913,2.281,1.253,3.627s-2.291,1.904-3.644,1.246c-0.475-0.23-0.888-0.363-1.213-0.417   c-0.349-0.059-0.596-0.028-0.702,0.07c-0.234,0.216-0.493,0.793-0.591,1.829c-0.199,2.129,0.283,6.207,3.07,13.171   c2.432,6.075,2.392,10.846-0.121,14.179c-2.14,2.839-5.528,3.809-8.052,4.118c-1.264,4.667-6.48,5.978-9.4,5.978   c-1.693,0-19.328,0-20.888,0c0.021,0.021-1.844-0.099-1.631-1.282c0.387-2.156,2.223-2.834,4.502-2.844   c2.277-0.01,2.916,0.032,4.418,0.059c0.754,0.014-7.257-2.007-6.622-8.082c1.697-12.075,14.701-7.107,14.701-7.107   c-12.821-6.306-15.507,4.048-15.507,4.048c-0.019,0.049-3.004,12.625-3.004,12.625s-0.562,2.345-2.554,2.76   c14.178-0.029,29.296-0.06,36.138-0.06c15.544,0,17.705-17.552,11.925-24.925C104.716,62.52,99.426,51.455,93.283,43.719z" fill="#000000" style="fill: rgb(0, 0, 0);"></path></g></g></svg>
