<?xml version="1.0" encoding="UTF-8" standalone="no"?><!DOCTYPE svg PUBLIC "-//W3C//DTD SVG 1.1//EN" "http://www.w3.org/Graphics/SVG/1.1/DTD/svg11.dtd"><svg width="24" height="24" xmlns="http://www.w3.org/2000/svg" xmlns:xlink="http://www.w3.org/1999/xlink" xmlns:serif="http://www.serif.com/" fill="#fff" fill-rule="evenodd" clip-rule="evenodd" stroke-linejoin="round" stroke-miterlimit="1.41"><path d="M19 24H5a5 5 0 0 1-5-5V5a5 5 0 0 1 5-5h14a5 5 0 0 1 5 5v14a5 5 0 0 1-5 5zm-2.74-5.15a.77.77 0 0 0 1.22-.46c.58-2.72 1.98-9.61 2.5-12.1a.53.53 0 0 0-.16-.5.54.54 0 0 0-.54-.09c-2.8 1.03-11.4 4.26-14.92 5.57a.55.55 0 0 0-.36.53c0 .24.17.44.4.5l3.65 1.14s.96 2.92 1.47 4.4c.06.2.2.34.4.4.2.04.4-.01.54-.15l2.06-1.94s2.39 1.74 3.74 2.7zm-7.34-5.78l1.12 3.69.24-2.34 6.8-6.12a.18.18 0 0 0 .02-.25.19.19 0 0 0-.26-.05l-7.92 5.07z"/></svg>