<svg xmlns="http://www.w3.org/2000/svg" version="1.1" xmlns:xlink="http://www.w3.org/1999/xlink" xmlns:svgjs="http://svgjs.com/svgjs" height="184.28303451538085" width="255.50074768066406"><defs id="SvgjsDefs2329"></defs><g id="SvgjsG2330" rel="mainfill" name="main_text" xmlns:name="main_text" transform="translate(-5.244152069091797,-56.2819679260254)" fill="#000000"><path d="M18.44 231.69Q9.71 219.87 6.76 204.67Q3.80 189.46 6.62 174.26Q7.88 170.04 12.53 168.07Q17.17 166.10 19.85 169.76Q22.10 173.28 22.10 178.27Q22.10 183.27 21.19 187.49Q20.27 191.72 21.40 197.07Q21.82 198.75 22.31 201.92Q22.80 205.09 23.23 206.92Q23.65 208.75 24.70 211.21Q25.76 213.68 27.31 215.51Q31.11 211.28 34.98 201.29Q38.85 191.29 41.95 187.49Q45.61 183.13 49.41 183.06Q53.21 182.99 56.31 186.44Q59.40 189.89 61.73 194.11Q64.05 198.33 65.60 202.98Q65.60 203.68 66.16 204.88Q66.72 206.07 67.43 206.85Q68.13 207.62 68.55 207.34Q72.07 203.12 73.06 197.35Q74.04 191.58 73.20 186.44Q72.36 181.30 72.14 175.11Q71.93 168.91 72.92 163.84Q74.04 161.59 77.49 160.11Q80.94 158.64 83.19 160.18Q86.01 162.44 87.28 166.10Q88.54 169.76 88.54 172.57Q88.54 175.39 88.12 180.31Q87.70 185.24 87.70 187.49Q87.70 200.73 81.79 216.21Q78.13 223.11 75.87 224.94Q72.92 227.33 70.10 227.54Q67.29 227.75 64.96 226.13Q62.64 224.52 60.81 222.19Q58.98 219.87 57.43 216.91Q52.08 206.36 48.57 201.43Q46.59 204.10 44.20 209.17Q41.81 214.24 39.70 218.25Q37.59 222.26 34.77 226.06Q31.95 229.86 27.80 231.41Q23.65 232.96 18.44 231.69ZM89.81 215.65Q89.81 211.99 89.67 203.75Q89.53 195.52 89.53 190.73Q89.53 185.94 89.95 178.91Q90.37 171.87 91.36 165.81Q92.20 160.18 96.85 158.57Q101.49 156.95 106.70 160.47Q109.10 162.86 108.25 164.55Q104.73 174.54 104.17 185.80Q103.61 197.07 104.52 211.35Q105.44 225.64 105.15 232.68Q105.01 234.23 101.92 234.79Q98.82 235.35 96.00 233.95Q94.88 233.38 93.96 232.68Q93.05 231.98 92.41 230.99Q91.78 230.01 91.29 229.23Q90.80 228.46 90.51 227.12Q90.23 225.78 90.09 225.01Q89.95 224.23 89.88 222.54Q89.81 220.86 89.81 220.29Q89.81 219.73 89.81 217.90Q89.81 216.07 89.81 215.65ZM187.08 240Q181.31 241.13 180.18 240Q176.10 231.98 174.41 221.00Q172.72 210.02 171.32 198.83Q169.91 187.63 166.53 179.75Q163.57 184.54 160.19 194.46Q156.82 204.39 154.85 208.47Q154.42 209.17 154.78 210.86Q155.13 212.55 154.85 213.25Q153.16 216.63 149.85 218.46Q146.54 220.29 143.16 218.74Q141.05 218.18 139.36 216.35Q137.67 214.52 137.67 212.55Q136.12 198.47 131.48 196.78Q129.93 196.22 129.72 197.98Q129.51 199.74 129.86 202.13Q130.21 204.53 129.51 206.36Q128.24 208.19 128.66 215.30Q129.09 222.40 128.80 224.23Q128.24 228.18 122.19 229.30Q116.13 230.43 113.74 227.61Q111.07 224.80 110.71 220.57Q110.36 216.35 111.35 212.69Q112.33 209.03 113.81 203.82Q115.29 198.61 115.71 195.52Q116.70 188.62 117.82 174.89Q118.95 161.17 119.94 154.27Q120.50 150.33 125.64 149.91Q130.77 149.49 132.18 152.30Q135.56 156.95 137.60 162.65Q139.64 168.35 141.47 176.16Q143.30 183.97 144.57 187.92L145.27 188.76Q146.12 189.60 146.54 189.96Q146.96 190.31 147.24 190.03Q149.21 187.21 151.19 182.57Q153.16 177.92 154.49 173.84Q155.83 169.76 157.94 165.53Q160.05 161.31 162.31 158.49Q164.56 155.68 168.29 154.41Q172.02 153.15 176.81 154.27Q181.31 167.36 185.25 193.90Q189.19 220.43 193.28 233.10Q194.12 235.50 192.08 237.47Q190.04 239.44 187.08 240ZM198.20 182.00Q199.05 171.02 201.30 166.80Q201.58 166.10 202.00 165.53Q201.30 165.25 199.40 164.83Q197.50 164.41 196.65 163.98Q194.54 161.59 195.32 158.14Q196.09 154.69 198.20 153.85Q214.39 147.37 231.71 151.39Q249.02 155.40 260.56 168.63Q260.99 172.57 260.42 176.16Q259.86 179.75 258.80 182.57Q257.75 185.38 255.28 188.20Q252.82 191.01 250.85 192.91Q248.88 194.81 245.08 197.07Q241.28 199.32 239.10 200.58Q236.91 201.85 232.34 203.68Q227.76 205.51 225.79 206.29Q223.82 207.06 219.04 208.75Q214.25 210.44 212.98 210.86Q212.56 214.52 213.97 221.77Q215.38 229.02 214.53 232.68Q213.26 236.34 209.46 238.59Q205.66 240.84 201.30 239.72Q200.60 239.30 198.20 236.48Q195.39 214.52 198.20 182.00M213.69 178.77Q213.69 180.45 212.84 184.61Q212.00 188.76 212.21 191.22Q212.42 193.69 214.53 194.39Q222.70 197.21 232.62 190.80Q242.54 184.40 244.94 174.96Q239.03 170.46 234.94 167.93Q230.86 165.39 224.67 163.63Q218.47 161.87 212.98 163.28Q212.70 163.28 213.41 163.91Q214.11 164.55 215.09 165.74Q216.08 166.94 216.08 167.93Q216.08 169.90 214.88 173.42Q213.69 176.94 213.69 178.77Z" fill="#000000" style="fill: rgb(0, 0, 0);"></path></g><g id="SvgjsG2331" rel="mainfill" name="symbol" xmlns:name="symbol_mainfill" transform="translate(75.33986082673073,-13.175400352478036) scale(1.05)" fill="#000000"><path fill-rule="evenodd" clip-rule="evenodd" d="M78.264,12.548c6.791,3.196,9.923,12.095,6.976,19.653  c-0.655,1.687-1.554,3.299-2.488,4.858c-1.149,1.923-2.819,3.558-0.814,6.051c1.11,1.381-0.917,1.727-1.551,2.491  c-1.437,1.733-2.51,3.524-1.896,5.9c0.642,2.505,2.479,4.307,4.759,4.323c3.151,0.022,3.436,1.668,3.494,4.284  c-4.178-0.814-7.653-2.9-10.69-5.542c-4.839-4.206-9.795-5.775-15.463-1.809c-1.207,0.847-2.27,0.169-3.235-0.173  c-7.639-2.707-15.027-1.736-22.312,1.293c-0.212,0.089-0.43,0.161-0.645,0.239c-9.229,3.33-10.81,1.194-12.353-7.009  c-0.502-2.669-0.748-4.454-4.401-3.924c-3.218,0.465-4.889-2.542-4.097-6.209c0.94-4.376,0.94-4.376-3.528-4.941  c-5.684-0.718-8.635-3.216-8.861-7.287c-0.117-2.078,0.527-3.271,2.716-3.414c2.753-0.177,5.302-0.476,7.134-3.17  c0.951-1.396,3.135-1.117,4.845-1.068c4.845,0.143,10.607,1.886,12.258,8.275c1.914,7.394,8.42,9.167,14.799,10.938  c9.446,2.62,19.066,0.991,28.604,1.369c2.271,0.089,3.782-1.064,5.112-2.846c4.646-6.211,5.852-12.729,2.231-19.848  C78.521,14.315,77.882,13.673,78.264,12.548z" fill="#000000" style="fill: rgb(0, 0, 0);"></path><path fill-rule="evenodd" clip-rule="evenodd" d="M32.629,86.393c2.549-1.522,2.217-3.199,1.305-4.959  c-0.106-0.201-0.201-0.41-0.329-0.597c-1.821-2.688-2.677-7.308-5.849-7.497c-4.719-0.279-9.823,0.192-14.266,2.649  c-1.771,0.981-1.712,2.806-1.802,4.519c-0.036,0.72-0.181,1.495-1.063,1.431c-0.801-0.059-1.043-0.786-1.004-1.537  c0.17-3.168,0.524-6.342,4.134-7.491c4.747-1.518,4.867-5.685,5.271-9.388c0.257-2.346-1.564-4.006-4.15-4.056  c-2.31-0.05-5.296,0.812-5.444-2.7c-0.103-2.499,1.857-4.437,4.019-5.617c1.238-0.677,2.061-1.242,1.587-3.346  c2.521,2.429,5.28,3.843,7.126,5.946c3.59,4.083,7.517,3.071,11.561,1.701c3.018-1.026,5.991-2.125,9.101-2.889  c4.858-1.194,9.544-0.5,14.132,1.015c1.896,0.628,3.363,0.687,5.087-0.474c4.047-2.727,7.918-2.103,11.616,0.939  c3.802,3.127,7.841,5.871,12.722,7.126c3.193,0.82,5.91,0.344,7.82-2.543c1.802-2.723,1.581-6.196-0.436-8.595  c-2.108-2.506-5.852-3.567-8.674-2.416c-1.057,0.432-2.164,0.912-2.349,2.241c-0.184,1.333,0.829,1.785,1.824,2.077  c1.146,0.334,1.459,1.069,1.097,2.064c-0.399,1.094-1.364,1.068-2.302,0.843c-1.898-0.46-3.386-1.456-3.807-3.479  c-0.491-2.369,0.401-4.236,2.34-5.645c3.447-2.504,9.132-2.208,12.813,0.682c3.569,2.801,4.9,7.485,3.313,11.669  c-1.683,4.435-5.731,7.046-10.487,6.544c-5.927-0.631-10.609-3.85-15.061-7.52c-3.71-3.057-6.427-3.163-9.868-0.678  c-1.121,0.806-1.386,1.536-0.812,2.812c2.195,4.839,3.643,9.942,7.252,14.204c2.523,2.981,3.829,7.001,3.433,11.19  c-0.117,1.26-0.313,2.582-2.097,2.532c-1.54-0.048-2.438-0.341-1.515-2.231c1.545-3.174-0.276-7.943-3.528-8.83  c-3.127-0.854-5.643-2.401-7.62-4.884c-1.802-2.262-2.49-0.923-3.048,0.89c-0.134,0.43-0.324,0.938-0.212,1.33  c1.372,4.903-1.899,8.164-4.1,11.813c-0.862,1.425-2.089,1.656-3.54,1.255c-0.401-0.114-0.99-0.377-1.06-0.67  c-0.123-0.524,0.187-0.998,0.694-1.411c3.776-3.076,4.189-4.989,2.097-9.218c-2.848-5.754-2.848-5.754-9.117-4.181  c-0.22,0.056-0.446,0.089-0.669,0.145c-4.836,1.197-4.889,1.312-3.185,6.114c0.686,1.93,1.556,3.832,1.913,5.823  C38.123,86.599,37.083,87.374,32.629,86.393z" fill="#000000" style="fill: rgb(0, 0, 0);"></path><path fill-rule="evenodd" clip-rule="evenodd" d="M61.819,58.552c4.945-3.799,6.23-3.818,10.026-0.691  c4.992,4.116,10.283,7.402,17.03,7.974c2.546,0.215,3.838,2.792,4.295,5.127c0.72,3.679,1.026,7.44,1.428,11.176  c0.126,1.16,0.614,2.588-1.305,2.967c-2.02,0.396-4.056,1.077-5.838-0.561c-0.616-0.565-0.326-1.279,0.137-1.832  c0.726-0.876,2.571-0.876,2.123-2.655c-0.637-2.526-0.846-5.216-2.553-7.354c-0.831-1.046-1.704-2.111-3.279-2.365  c-0.433,3.556-0.739,7.048-1.313,10.489c-0.438,2.622-5.021,4.117-6.984,2.282c-1.384-1.295-0.173-2.491,0.945-2.784  c2.307-0.607,2.084-2.027,1.685-3.687c-0.825-3.445-1.593-6.851-5.003-8.931c-1.877-1.149-3.16-3.068-3.844-5.132  C68.262,59.238,66.145,57.811,61.819,58.552z" fill="#000000" style="fill: rgb(0, 0, 0);"></path><path fill-rule="evenodd" clip-rule="evenodd" d="M43.096,78.795c-0.103,1.244-0.301,3.632-0.51,6.019  c-0.165,1.858-1.453,2.636-3.051,2.556c-2.125-0.109-0.943-1.863-1.049-2.859c-0.226-2.15,0.073-4.396-0.435-6.457  c-0.237-0.959,0.89-3.525-2.033-3.042c-0.31,0.05-0.627-1.158-0.067-1.741c0.295-0.307,0.77-0.46,1.185-0.633  C43.01,70.232,43.464,70.615,43.096,78.795z" fill="#000000" style="fill: rgb(0, 0, 0);"></path><path fill-rule="evenodd" clip-rule="evenodd" d="M30.811,85.592c-1.657-0.008-2.99-0.393-2.787-2.017  c0.251-2.019,2.401-2.484,3.81-2.928c0.976-0.308,1.729,1.662,1.648,2.833C33.374,85.093,32.074,85.646,30.811,85.592z" fill="#000000" style="fill: rgb(0, 0, 0);"></path></g></svg>
