<svg xmlns="http://www.w3.org/2000/svg" version="1.1" xmlns:xlink="http://www.w3.org/1999/xlink" xmlns:svgjs="http://svgjs.com/svgjs" height="160.5003189086914" width="254.58502197265625"><defs id="SvgjsDefs1078"></defs><g id="SvgjsG1079" rel="mainfill" name="main_text" xmlns:name="main_text" transform="translate(-1.340000033378601,-80.11967620849609)" fill="#ffffff"><path d="M38.42 178.59L27.90 211.74L27.63 211.74L24.87 201.14L16.85 177.61L1.34 177.61L1.34 180.01L23.26 240.62L32.09 240.62L42.07 210.59L42.34 210.59L52.32 240.62L61.50 240.62L83.16 180.01L83.16 177.61L67.65 177.61L59.72 201.14L56.96 211.74L56.69 211.74L46.08 178.59C43.59 178.59 40.91 178.59 38.42 178.59ZM27.90 229.75L41.80 188.57C42.16 188.57 42.34 188.57 42.61 188.57L56.60 229.75L56.69 229.75L73.18 183.58L74.43 183.58L56.96 231.71L56.33 231.71L42.25 189.91L28.17 231.71L27.54 231.71L10.16 183.58L11.23 183.58L27.81 229.75ZM102.77 232.60L102.77 185.09L94.12 185.09L94.12 184.20L112.22 184.20L112.22 185.09L103.66 185.09L103.66 232.60L112.93 232.60L112.93 233.49L93.32 233.49L93.32 232.60ZM111.06 226.01L111.06 191.51L118.37 191.51L118.37 177.61L87.97 177.61L87.97 191.51L95.28 191.51L95.28 226.01L87.35 226.01L87.35 240L118.99 240L118.99 226.01ZM159.64 204.53L135.21 177.43L129.33 177.43L129.33 240C134.77 240 140.21 240 145.64 240L145.64 212.19L158.83 226.10L160.62 226.10L173.90 212.19L173.90 240C179.33 240 184.77 240 190.21 240L190.21 177.43L184.50 177.43ZM181.65 233.85L181.65 193.65L159.64 216.65L137.98 193.65L137.98 233.85L137.09 233.85L137.09 192.49L138.24 192.49L159.64 215.31L181.30 192.49L182.54 192.49L182.54 233.85ZM233.62 217.36L214.45 217.36L214.45 234.03L213.47 234.03L213.47 184.38L233.62 184.38C253.49 184.38 253.40 217.18 233.62 217.36ZM222.03 240L222.03 224.05L233.53 224.05C263.39 224.05 263.39 177.70 233.53 177.61C224.35 177.61 215.08 177.61 206.07 177.61C206.07 198.46 206.07 219.23 206.07 240C211.33 240 216.68 240 222.03 240ZM214.45 185.18L214.45 216.29L233.62 216.29C252.33 216.29 252.07 185.18 233.62 185.18ZM233.44 209.69L222.03 209.69C222.03 204.61 222.03 196.95 222.03 191.87C225.68 191.87 229.69 191.78 233.44 191.87C242.71 191.96 242.17 209.69 233.44 209.69Z" fill="#ffffff" style="fill: rgb(255, 255, 255);"></path></g><g id="SvgjsG1080" rel="mainfill" name="symbol" xmlns:name="symbol_mainfill" transform="translate(72.38625925779343,-13.802800369262696) scale(1.1)" fill="#ffffff"><path fill-rule="evenodd" clip-rule="evenodd" d="M78.264,12.548c6.791,3.196,9.923,12.095,6.976,19.653  c-0.655,1.687-1.554,3.299-2.488,4.858c-1.149,1.923-2.819,3.558-0.814,6.051c1.11,1.381-0.917,1.727-1.551,2.491  c-1.437,1.733-2.51,3.524-1.896,5.9c0.642,2.505,2.479,4.307,4.759,4.323c3.151,0.022,3.436,1.668,3.494,4.284  c-4.178-0.814-7.653-2.9-10.69-5.542c-4.839-4.206-9.795-5.775-15.463-1.809c-1.207,0.847-2.27,0.169-3.235-0.173  c-7.639-2.707-15.027-1.736-22.312,1.293c-0.212,0.089-0.43,0.161-0.645,0.239c-9.229,3.33-10.81,1.194-12.353-7.009  c-0.502-2.669-0.748-4.454-4.401-3.924c-3.218,0.465-4.889-2.542-4.097-6.209c0.94-4.376,0.94-4.376-3.528-4.941  c-5.684-0.718-8.635-3.216-8.861-7.287c-0.117-2.078,0.527-3.271,2.716-3.414c2.753-0.177,5.302-0.476,7.134-3.17  c0.951-1.396,3.135-1.117,4.845-1.068c4.845,0.143,10.607,1.886,12.258,8.275c1.914,7.394,8.42,9.167,14.799,10.938  c9.446,2.62,19.066,0.991,28.604,1.369c2.271,0.089,3.782-1.064,5.112-2.846c4.646-6.211,5.852-12.729,2.231-19.848  C78.521,14.315,77.882,13.673,78.264,12.548z" fill="#ffffff" style="fill: rgb(255, 255, 255);"></path><path fill-rule="evenodd" clip-rule="evenodd" d="M32.629,86.393c2.549-1.522,2.217-3.199,1.305-4.959  c-0.106-0.201-0.201-0.41-0.329-0.597c-1.821-2.688-2.677-7.308-5.849-7.497c-4.719-0.279-9.823,0.192-14.266,2.649  c-1.771,0.981-1.712,2.806-1.802,4.519c-0.036,0.72-0.181,1.495-1.063,1.431c-0.801-0.059-1.043-0.786-1.004-1.537  c0.17-3.168,0.524-6.342,4.134-7.491c4.747-1.518,4.867-5.685,5.271-9.388c0.257-2.346-1.564-4.006-4.15-4.056  c-2.31-0.05-5.296,0.812-5.444-2.7c-0.103-2.499,1.857-4.437,4.019-5.617c1.238-0.677,2.061-1.242,1.587-3.346  c2.521,2.429,5.28,3.843,7.126,5.946c3.59,4.083,7.517,3.071,11.561,1.701c3.018-1.026,5.991-2.125,9.101-2.889  c4.858-1.194,9.544-0.5,14.132,1.015c1.896,0.628,3.363,0.687,5.087-0.474c4.047-2.727,7.918-2.103,11.616,0.939  c3.802,3.127,7.841,5.871,12.722,7.126c3.193,0.82,5.91,0.344,7.82-2.543c1.802-2.723,1.581-6.196-0.436-8.595  c-2.108-2.506-5.852-3.567-8.674-2.416c-1.057,0.432-2.164,0.912-2.349,2.241c-0.184,1.333,0.829,1.785,1.824,2.077  c1.146,0.334,1.459,1.069,1.097,2.064c-0.399,1.094-1.364,1.068-2.302,0.843c-1.898-0.46-3.386-1.456-3.807-3.479  c-0.491-2.369,0.401-4.236,2.34-5.645c3.447-2.504,9.132-2.208,12.813,0.682c3.569,2.801,4.9,7.485,3.313,11.669  c-1.683,4.435-5.731,7.046-10.487,6.544c-5.927-0.631-10.609-3.85-15.061-7.52c-3.71-3.057-6.427-3.163-9.868-0.678  c-1.121,0.806-1.386,1.536-0.812,2.812c2.195,4.839,3.643,9.942,7.252,14.204c2.523,2.981,3.829,7.001,3.433,11.19  c-0.117,1.26-0.313,2.582-2.097,2.532c-1.54-0.048-2.438-0.341-1.515-2.231c1.545-3.174-0.276-7.943-3.528-8.83  c-3.127-0.854-5.643-2.401-7.62-4.884c-1.802-2.262-2.49-0.923-3.048,0.89c-0.134,0.43-0.324,0.938-0.212,1.33  c1.372,4.903-1.899,8.164-4.1,11.813c-0.862,1.425-2.089,1.656-3.54,1.255c-0.401-0.114-0.99-0.377-1.06-0.67  c-0.123-0.524,0.187-0.998,0.694-1.411c3.776-3.076,4.189-4.989,2.097-9.218c-2.848-5.754-2.848-5.754-9.117-4.181  c-0.22,0.056-0.446,0.089-0.669,0.145c-4.836,1.197-4.889,1.312-3.185,6.114c0.686,1.93,1.556,3.832,1.913,5.823  C38.123,86.599,37.083,87.374,32.629,86.393z" fill="#ffffff" style="fill: rgb(255, 255, 255);"></path><path fill-rule="evenodd" clip-rule="evenodd" d="M61.819,58.552c4.945-3.799,6.23-3.818,10.026-0.691  c4.992,4.116,10.283,7.402,17.03,7.974c2.546,0.215,3.838,2.792,4.295,5.127c0.72,3.679,1.026,7.44,1.428,11.176  c0.126,1.16,0.614,2.588-1.305,2.967c-2.02,0.396-4.056,1.077-5.838-0.561c-0.616-0.565-0.326-1.279,0.137-1.832  c0.726-0.876,2.571-0.876,2.123-2.655c-0.637-2.526-0.846-5.216-2.553-7.354c-0.831-1.046-1.704-2.111-3.279-2.365  c-0.433,3.556-0.739,7.048-1.313,10.489c-0.438,2.622-5.021,4.117-6.984,2.282c-1.384-1.295-0.173-2.491,0.945-2.784  c2.307-0.607,2.084-2.027,1.685-3.687c-0.825-3.445-1.593-6.851-5.003-8.931c-1.877-1.149-3.16-3.068-3.844-5.132  C68.262,59.238,66.145,57.811,61.819,58.552z" fill="#ffffff" style="fill: rgb(255, 255, 255);"></path><path fill-rule="evenodd" clip-rule="evenodd" d="M43.096,78.795c-0.103,1.244-0.301,3.632-0.51,6.019  c-0.165,1.858-1.453,2.636-3.051,2.556c-2.125-0.109-0.943-1.863-1.049-2.859c-0.226-2.15,0.073-4.396-0.435-6.457  c-0.237-0.959,0.89-3.525-2.033-3.042c-0.31,0.05-0.627-1.158-0.067-1.741c0.295-0.307,0.77-0.46,1.185-0.633  C43.01,70.232,43.464,70.615,43.096,78.795z" fill="#ffffff" style="fill: rgb(255, 255, 255);"></path><path fill-rule="evenodd" clip-rule="evenodd" d="M30.811,85.592c-1.657-0.008-2.99-0.393-2.787-2.017  c0.251-2.019,2.401-2.484,3.81-2.928c0.976-0.308,1.729,1.662,1.648,2.833C33.374,85.093,32.074,85.646,30.811,85.592z" fill="#ffffff" style="fill: #FFFFFF;"></path></g></svg>
