<svg width="362" height="362" xmlns="http://www.w3.org/2000/svg" xmlns:xlink="http://www.w3.org/1999/xlink"><title>lostPetIcon</title><defs><path id="a" d="M0 251.1h373V.06H0v191.08h163.46v-97.6H0v97.6z"/><path id="c" d="M131.88 50.95H.09V.05h131.79v50.9z"/></defs><g fill="none" fill-rule="evenodd"><path d="M297.72 59.86c25.48-20.58 68.36 29.92 60.28 45.5-4.49 8.67-38.9-6.72-70.83-7.9L275 68.66c6.49.62 13.28-1.17 22.72-8.8" fill="#434544"/><path d="M234.14 61.2c20.65-1.57 30.76 6.5 41.74 7.55L288 97.56c-25.45-.94-49.32 7.21-55.1 44.06-13 82.92-79.83 49.88-79.83 49.88-26.62-56.73-4.34-89.77-4.34-89.77 23.52-41.78 52.61-38.03 85.41-40.53z" fill-opacity=".68" fill="#F15A24"/><path d="M177.15 62.48s22.18 19.44-8.01 30.73c-30.2 11.29-80.1 22.58-59.15-7.53 20.95-30.1 27.72-40.76 67.16-23.2M266 165a17 17 0 1 0 34 0 17 17 0 0 0-34 0m-99 0a17 17 0 1 0 34 0 17 17 0 0 0-34 0m47 38.7c0 12.73 23 29.3 23 29.3s23-16.57 23-29.3c0-12.74-23-10.56-23-10.56s-23-2.18-23 10.55m78.68 51.9a45.1 45.1 0 0 1-35.76 1.06 51.15 51.15 0 0 1-8.83-4.55 64.58 64.58 0 0 1-4.7-3.34A75.23 75.23 0 0 1 240 246c.22.77.49 1.52.77 2.26a32.71 32.71 0 0 0 9.57 13.15c.95.81 1.94 1.58 2.98 2.29a37.35 37.35 0 0 0 21.8 6.28 37.12 37.12 0 0 0 21.56-7.54c6.09-4.64 10.68-11.2 12.32-18.44-5.21 5.07-10.58 8.94-16.32 11.6m-55.96-6.62a64.72 64.72 0 0 1-4.58 3.65 51.99 51.99 0 0 1-8.46 4.97 45.13 45.13 0 0 1-17.71 4.23 45.12 45.12 0 0 1-18.05-3.18c-5.88-2.3-11.44-5.88-16.92-10.65 2.05 7.12 6.99 13.41 13.32 17.7a37.33 37.33 0 0 0 21.8 6.28 37.1 37.1 0 0 0 21.56-7.54 36 36 0 0 0 2.6-2.2 32.8 32.8 0 0 0 9.06-13.88c.25-.78.48-1.56.66-2.36a75.88 75.88 0 0 1-3.28 2.98m-157.66 1.66c1.1 8.4 18 17.36 18 17.36s13.99-12.92 12.88-21.33c-1.11-8.4-16.36-4.98-16.36-4.98s-15.63.54-14.52 8.95" fill="#454545"/><path d="M49 225.5a11.5 11.5 0 1 0 23 0 11.5 11.5 0 0 0-23 0m70.5 3.5a11.5 11.5 0 1 0 0-23 11.5 11.5 0 0 0 0 23z" fill="#444"/><path d="M118.47 250.48c11.4-10.38 27.6-19.93 43.45-16.92 1.9.36 1.09 3.25-.79 2.89-10.31-1.96-20.98 2.1-30.07 8.02 9.99-3.15 20.89-3.7 30.86-.36 1.82.6 1.04 3.5-.79 2.89-13.05-4.37-27.77-1.75-39.58 4.74-.32.28-.66.57-.97.86-1.42 1.29-3.53-.82-2.1-2.12" fill="#434544"/><g transform="translate(-14 133)"><mask id="b" fill="#fff"><use xlink:href="#a"/></mask><path d="M157.93 93.53l-30.5 22.58c-7.4-2.86-28.96-8.84-56.93 4.1L21.58 97.82v57.06c-5.57 4.07-19.8 16-21.44 32.86a32.85 32.85 0 0 0-.14 2.52c3.16.1 6.3.36 9.37.88-.02-.82-.03-1.64.05-2.46 1.52-15.96 19.13-27.26 19.3-27.37l2.19-1.37v-47.56l39.7 18.16 1.98-.96c30.7-15.06 52.43-4.4 53.32-3.95l2.58 1.33 34.97-25.9-5.53-7.53z" fill="#F5BD4C" mask="url(#b)"/></g><g transform="translate(31 254)"><mask id="d" fill="#fff"><use xlink:href="#c"/></mask><path d="M123.7 4.06c-.64 14.5-9.84 24-20.79 27.02a28.45 28.45 0 0 1-8.81.99c-9.12-.4-18.22-5.23-23.81-15.3-1.22-2.19-3.4-2.42-5.13-1.57a3.22 3.22 0 0 0-2.17 2.23c-.16.38-.27.77-.3 1.2a30.9 30.9 0 0 1-5.42 12.54A28.94 28.94 0 0 1 35.4 42.94c-10.85.52-21.92-5.23-27.12-18.4-1.94-4.91-9.85-2.77-7.88 2.2 5.52 13.99 16.8 21.8 28.78 23.74 15 2.42 31.08-4.42 38.3-20.02a38.5 38.5 0 0 0 .95-2.15 37.13 37.13 0 0 0 2.44 2.49c10.75 10.08 25.52 11.8 37.85 6.86 12.46-5 22.41-16.75 23.15-33.6.24-5.36-7.93-5.34-8.17 0" fill="#434544" mask="url(#d)"/></g><path d="M70.14 257.14c-18.4-13.43-43.78-24.92-66.73-18.13-2.73.8-1.11 4.9 1.6 4.1 14.94-4.42 31.32-.1 45.64 7.16-15.24-3.08-31.41-2.25-45.64 4.14-2.59 1.16-1 5.26 1.6 4.1 18.62-8.36 40.75-6.75 59.17.93.52.37 1.06.73 1.57 1.1 2.3 1.68 5.1-1.71 2.79-3.4" fill="#434544"/><path d="M140 133.71l-30.64 23.62c-6.3-2.58-24.63-7.96-48.4 3.69l-41.6-20.16v51.38c-4.74 3.66-16.85 14.4-18.24 29.58-.07.76-.1 1.52-.12 2.28 2.69.08 5.35.32 7.96.79 0-.74-.02-1.48.05-2.22 1.29-14.37 16.26-24.55 16.4-24.64l1.87-1.24v-42.82l33.76 16.35 1.69-.87c26.1-13.55 44.58-3.96 45.34-3.55l2.19 1.2 12.48-9.78L140 143.78v-10.07z" fill-opacity=".68" fill="#F15A24"/></g></svg>